<svg width="15" height="17" viewBox="0 0 15 17" fill="none" xmlns="http://www.w3.org/2000/svg">
<path d="M-0.0079999 17V0.199999H7.264C8.768 0.199999 10.064 0.447999 11.152 0.943999C12.24 1.424 13.08 2.12 13.672 3.032C14.264 3.944 14.56 5.032 14.56 6.296C14.56 7.544 14.264 8.624 13.672 9.536C13.08 10.432 12.24 11.12 11.152 11.6C10.064 12.08 8.768 12.32 7.264 12.32H2.152L3.88 10.616V17H-0.0079999ZM10.672 17L6.472 10.904H10.624L14.872 17H10.672ZM3.88 11.048L2.152 9.224H7.048C8.248 9.224 9.144 8.968 9.736 8.456C10.328 7.928 10.624 7.208 10.624 6.296C10.624 5.368 10.328 4.648 9.736 4.136C9.144 3.624 8.248 3.368 7.048 3.368H2.152L3.88 1.52V11.048Z" fill="#FDB100"/>
</svg>
