<svg width="1440" height="1403" viewBox="0 0 1440 1403" fill="none" xmlns="http://www.w3.org/2000/svg">
<path fill-rule="evenodd" clip-rule="evenodd" d="M-204 541.248L-128.009 586.697C-52.0177 632.147 99.9647 723.046 226.058 734.589C352.151 746.133 452.355 678.321 547.381 594.639C642.406 510.956 732.254 411.402 850.581 399.139C968.907 386.876 1115.71 461.904 1239.22 465.512C1362.72 469.121 1462.92 401.309 1513.03 367.403L1563.13 333.497L1609.73 476.337L1554.45 494.372C1499.17 512.406 1388.61 548.476 1278.05 584.545C1167.49 620.615 1056.93 656.684 946.371 692.754C835.812 728.823 725.252 764.893 614.693 800.962C504.133 837.032 393.574 873.101 283.014 909.171C172.455 945.24 61.8952 981.31 6.61545 999.345L-48.6643 1017.38L-204 541.248Z" fill="#FEFBF6"/>
<path fill-rule="evenodd" clip-rule="evenodd" d="M1735.92 861.005L1659.93 815.556C1583.94 770.106 1431.96 679.207 1305.86 667.663C1179.77 656.12 1079.57 723.931 984.539 807.614C889.513 891.297 799.665 990.85 681.339 1003.11C563.013 1015.38 416.208 940.348 292.704 936.74C169.2 933.132 68.9964 1000.94 18.8944 1034.85L-31.2075 1068.76L-77.8082 925.916L-22.5285 907.881C32.7514 889.846 143.311 853.777 253.87 817.707C364.43 781.638 474.989 745.568 585.549 709.499C696.108 673.429 806.668 637.36 917.227 601.29C1027.79 565.221 1138.35 529.151 1248.91 493.082C1359.47 457.012 1470.02 420.943 1525.3 402.908L1580.58 384.873L1735.92 861.005Z" fill="#FEFBF6"/>
</svg>
